<svg xmlns="http://www.w3.org/2000/svg" width="1494.666748046875" height="1130"><g id="chart" width="600" height="1647.021481263752" transform="translate(165.68454874104157, -1076.1788920903848),scale(1.5662301310904185)"><g id="background" class="background"><line x1="300.5" y1="823.510740631876" x2="300.5" y2="1372.5179010531267" stroke="black" stroke-width="1"/><line x1="352.5833333333333" y1="823.510740631876" x2="352.5833333333333" y2="1372.5179010531267" stroke="black" stroke-width="1"/><line x1="404.6666666666667" y1="823.510740631876" x2="404.6666666666667" y2="1372.5179010531267" stroke="black" stroke-width="1"/><line x1="456.75" y1="823.510740631876" x2="456.75" y2="1372.5179010531267" stroke="black" stroke-width="1"/></g><g class="axis" id="x-axis" transform="translate(300, 823.510740631876)" fill="none" font-size="12px" font-family="Arial" text-anchor="end"><path class="domain" stroke="black" d="M0,0V549.0071604212507" stroke-width="1"/><g class="tick" opacity="1" transform="translate(0,19.996949551767393)"><line stroke="black" x2="-5" stroke-width="1"/><text fill="currentColor" x="-8" dy="0.32em">India</text></g><g class="tick" opacity="1" transform="translate(0,56.35503964588995)"><line stroke="black" x2="-5" stroke-width="1"/><text fill="currentColor" x="-8" dy="0.32em">Turkey</text></g><g class="tick" opacity="1" transform="translate(0,92.7131297400125)"><line stroke="black" x2="-5" stroke-width="1"/><text fill="currentColor" x="-8" dy="0.32em">Bangladesh</text></g><g class="tick" opacity="1" transform="translate(0,129.07121983413506)"><line stroke="black" x2="-5" stroke-width="1"/><text fill="currentColor" x="-8" dy="0.32em">China</text></g><g class="tick" opacity="1" transform="translate(0,165.42930992825762)"><line stroke="black" x2="-5" stroke-width="1"/><text fill="currentColor" x="-8" dy="0.32em">Indonesia</text></g><g class="tick" opacity="1" transform="translate(0,201.78740002238018)"><line stroke="black" x2="-5" stroke-width="1"/><text fill="currentColor" x="-8" dy="0.32em">Pakistan</text></g><g class="tick" opacity="1" transform="translate(0,238.14549011650274)"><line stroke="black" x2="-5" stroke-width="1"/><text fill="currentColor" x="-8" dy="0.32em">Ethiopia</text></g><g class="tick" opacity="1" transform="translate(0,274.50358021062533)"><line stroke="black" x2="-5" stroke-width="1"/><text fill="currentColor" x="-8" dy="0.32em">Nepal</text></g><g class="tick" opacity="1" transform="translate(0,310.86167030474786)"><line stroke="black" x2="-5" stroke-width="1"/><text fill="currentColor" x="-8" dy="0.32em">Colombia</text></g><g class="tick" opacity="1" transform="translate(0,347.2197603988704)"><line stroke="black" x2="-5" stroke-width="1"/><text fill="currentColor" x="-8" dy="0.32em">Myanmar</text></g><g class="tick" opacity="1" transform="translate(0,383.577850492993)"><line stroke="black" x2="-5" stroke-width="1"/><text fill="currentColor" x="-8" dy="0.32em">Nigeria</text></g><g class="tick" opacity="1" transform="translate(0,419.93594058711557)"><line stroke="black" x2="-5" stroke-width="1"/><text fill="currentColor" x="-8" dy="0.32em">Burkina Faso</text></g><g class="tick" opacity="1" transform="translate(0,456.2940306812381)"><line stroke="black" x2="-5" stroke-width="1"/><text fill="currentColor" x="-8" dy="0.32em">Bhutan</text></g><g class="tick" opacity="1" transform="translate(0,492.65212077536063)"><line stroke="black" x2="-5" stroke-width="1"/><text fill="currentColor" x="-8" dy="0.32em">Sri Lanka</text></g><g class="tick" opacity="1" transform="translate(0,529.0102108694833)"><line stroke="black" x2="-5" stroke-width="1"/><text fill="currentColor" x="-8" dy="0.32em">Niger</text></g></g><text id="titlex-axis" x="317" y="1098.0143208425013" text-anchor="middle" font-size="12px" font-family="Arial" transform="translate(-102.521484375, 0) rotate(-90, 317, 1098.0143208425013) ">Country</text><g class="axis" id="y-axis" transform="translate(300, 823.510740631876)" fill="none" font-size="12px" font-family="Arial" text-anchor="start"><path class="domain" stroke="black" d="M0,0H200" stroke-width="1"/><g class="tick" opacity="1" transform="translate(0,0)"><line stroke="black" y2="-5" stroke-width="1"/><text fill="currentColor" y="-8" dy="0em" transform=" translate(0, 0), rotate(-45)">0</text></g><g class="tick" opacity="1" transform="translate(52.083333333333336,0)"><line stroke="black" y2="-5" stroke-width="1"/><text fill="currentColor" y="-8" dy="0em" transform=" translate(0, 0), rotate(-45)">500,000,000</text></g><g class="tick" opacity="1" transform="translate(104.16666666666667,0)"><line stroke="black" y2="-5" stroke-width="1"/><text fill="currentColor" y="-8" dy="0em" transform=" translate(0, 0), rotate(-45)">1,000,000,000</text></g><g class="tick" opacity="1" transform="translate(156.25,0)"><line stroke="black" y2="-5" stroke-width="1"/><text fill="currentColor" y="-8" dy="0em" transform=" translate(0, 0), rotate(-45)">1,500,000,000</text></g></g><text id="titley-axis" x="397.23000323739086" y="736.1880357848863" text-anchor="middle" font-size="12px" font-family="Arial" transform="translate(0, 0)">Spices Production (Kg)</text><g id="marks" class="bar"><rect id="bar-0" class="bar" x="300" y="827.1465496412883" width="200" height="32.72228108471029" fill="#e41a1c"/><rect id="bar-1" class="bar" x="300" y="863.5046397354108" width="30.416666666666686" height="32.72228108471029" fill="#e41a1c"/><rect id="bar-2" class="bar" x="300" y="899.8627298295335" width="18.541666666666686" height="32.72228108471029" fill="#e41a1c"/><rect id="bar-3" class="bar" x="300" y="936.220819923656" width="11.458333333333314" height="32.72228108471029" fill="#e41a1c"/><rect id="bar-4" class="bar" x="300" y="972.5789100177785" width="11.458333333333314" height="32.72228108471029" fill="#e41a1c"/><rect id="bar-5" class="bar" x="300" y="1008.937000111901" width="7.952812499999993" height="32.72228108471029" fill="#e41a1c"/><rect id="bar-6" class="bar" x="300" y="1045.2950902060236" width="4.156041666666681" height="32.7222810847104" fill="#e41a1c"/><rect id="bar-7" class="bar" x="300" y="1081.6531803001462" width="2.533124999999984" height="32.7222810847104" fill="#e41a1c"/><rect id="bar-8" class="bar" x="300" y="1118.0112703942686" width="1.6554166666666674" height="32.7222810847104" fill="#e41a1c"/><rect id="bar-9" class="bar" x="300" y="1154.3693604883913" width="1.009791666666672" height="32.7222810847104" fill="#e41a1c"/><rect id="bar-10" class="bar" x="300" y="1190.727450582514" width="0.7388541666666697" height="32.7222810847104" fill="#e41a1c"/><rect id="bar-11" class="bar" x="300" y="1227.0855406766364" width="0.6654166666666583" height="32.7222810847104" fill="#e41a1c"/><rect id="bar-12" class="bar" x="300" y="1263.443630770759" width="0.5847916666666606" height="32.7222810847104" fill="#e41a1c"/><rect id="bar-13" class="bar" x="300" y="1299.8017208648816" width="0.5713541666666515" height="32.7222810847104" fill="#e41a1c"/><rect id="bar-14" class="bar" x="300" y="1336.159810959004" width="0.5291666666666401" height="32.7222810847104" fill="#e41a1c"/><text x="364.814453125" y="843.5076901836435" font-size="12px" text-anchor="start" font-family="Arial" fill="black" alignment-baseline="middle">1920000000</text></g></g></svg>